HIERARCHY
ROOT Hips
{
	OFFSET 0.00000 0.00000 0.00000
	CHANNELS 6 Xposition Yposition Zposition Zrotation Yrotation Xrotation 
	JOINT LHipJoint
	{
		OFFSET 0 0 0
		CHANNELS 3 Zrotation Yrotation Xrotation
		JOINT LeftHip
		{
			OFFSET 1.37959 -1.78713 0.86582
			CHANNELS 3 Zrotation Yrotation Xrotation
			JOINT LeftKnee
			{
				OFFSET 2.54611 -6.99539 0.00000
				CHANNELS 3 Zrotation Yrotation Xrotation
				JOINT LeftAnkle
				{
					OFFSET 2.59951 -7.14211 0.00000
					CHANNELS 3 Zrotation Yrotation Xrotation
					JOINT LeftToe
					{
						OFFSET 0.18493 -0.50810 1.96120
						CHANNELS 3 Zrotation Yrotation Xrotation
						End Site
						{
							OFFSET 0.00000 -0.00000 1.02054
						}
					}
				}
			}
		}
	}
	JOINT RHipJoint
	{
		OFFSET 0 0 0
		CHANNELS 3 Zrotation Yrotation Xrotation
		JOINT RightHip
		{
			OFFSET -1.33564 -1.78713 0.86582
			CHANNELS 3 Zrotation Yrotation Xrotation
			JOINT RightKnee
			{
				OFFSET -2.52705 -6.94302 0.00000
				CHANNELS 3 Zrotation Yrotation Xrotation
				JOINT RightAnkle
				{
					OFFSET -2.55964 -7.03257 0.00000
					CHANNELS 3 Zrotation Yrotation Xrotation
					JOINT RightToe
					{
						OFFSET -0.25804 -0.70896 2.12109
						CHANNELS 3 Zrotation Yrotation Xrotation
						End Site
						{
							OFFSET -0.00000 -0.00000 1.11821
						}
					}
				}
			}
		}
	}
	JOINT lowerback
	{
		OFFSET 0 0 0
		CHANNELS 3 Zrotation Yrotation Xrotation
		JOINT Chest
		{
			OFFSET -0.02031 2.24248 -0.18900
			CHANNELS 3 Zrotation Yrotation Xrotation
			JOINT Chest2
			{
				OFFSET 0.08342 2.24689 -0.03799
				CHANNELS 3 Zrotation Yrotation Xrotation
				JOINT lowerneck
				{
					OFFSET 0 0 0
					CHANNELS 3 Zrotation Yrotation Xrotation
					JOINT Neck
					{
						OFFSET -0.11607 1.55844 0.24628
						CHANNELS 3 Zrotation Yrotation Xrotation
						JOINT Head
						{
							OFFSET 0.06877 1.60174 -0.17013
							CHANNELS 3 Zrotation Yrotation Xrotation
							End Site
							{
								OFFSET 0.03358 1.61266 -0.08543
							}
						}
					}
				}
				JOINT LeftCollar
				{
					OFFSET 0 0 0
					CHANNELS 3 Zrotation Yrotation Xrotation
					JOINT LeftShoulder
					{
						OFFSET 3.47537 0.55866 -0.72348
CHANNELS 3 Zrotation Xrotation Yrotation
						JOINT LeftElbow
						{
OFFSET 0 -5.381540 0.000000
CHANNELS 3 Zrotation Xrotation Yrotation
							JOINT LeftWrist
							{
OFFSET 0 -3.333120 0.000000
CHANNELS 3 Zrotation Xrotation Yrotation
								JOINT lhand
								{
									OFFSET 0 0 0
CHANNELS 3 Zrotation Xrotation Yrotation
									JOINT LFingers
									{
OFFSET 0 -0.710790 0.000000
CHANNELS 3 Zrotation Xrotation Yrotation
										End Site
										{
OFFSET 0 -0.573060 0.000000
										}
									}
								}
								JOINT LThumb
								{
OFFSET 0 0.000000 0.000000
CHANNELS 3 Zrotation Xrotation Yrotation
									End Site
									{
OFFSET 0 -0.581810 0.581810
									}
								}
							}
						}
					}
				}
				JOINT RightCollar
				{
					OFFSET 0 0 0
					CHANNELS 3 Zrotation Yrotation Xrotation
					JOINT RightShoulder
					{
						OFFSET -3.27844 0.90739 -0.35708
CHANNELS 3 Zrotation Xrotation Yrotation
						JOINT RightElbow
						{
OFFSET 0 -5.169540 0.000000
CHANNELS 3 Zrotation Xrotation Yrotation
							JOINT RightWrist
							{
OFFSET 0 -3.382870 0.000000
CHANNELS 3 Zrotation Xrotation Yrotation
								JOINT rhand
								{
									OFFSET 0 0 0
CHANNELS 3 Zrotation Xrotation Yrotation
									JOINT RFingers
									{
OFFSET 0 -0.817970 0.000000
CHANNELS 3 Zrotation Xrotation Yrotation
										End Site
										{
OFFSET 0 -0.659470 0.000000
										}
									}
								}
								JOINT RThumb
								{
OFFSET 0 0.000000 0.000000
CHANNELS 3 Zrotation Xrotation Yrotation
									End Site
									{
OFFSET 0 -0.669530 0.669530
									}
								}
							}
						}
					}
				}
			}
		}
	}
}
MOTION
Frames: 13
Frame Time: .0083333
25.0161 17.0551 -20.8274 7.5775 -18.3604 4.3290 0.0000 0.0000 0.0000 -18.9361 1.7307 -6.8620 2.2515 9.3714 26.9640 0.9505 -7.8545 -17.4567 2.7544 -10.2864 -29.9091 0.0000 0.0000 0.0000 13.3145 2.2429 -39.4436 -6.2392 -14.6562 45.9343 -1.0775 3.4971 -18.7642 -0.4559 4.3314 -12.0109 -10.5024 -1.1172 10.6051 0.5011 -2.6084 2.6262 6.7755 -1.2662 -2.6795 -16.5706 -4.1952 -21.0309 10.4698 -3.0860 20.8379 6.1090 -1.5060 10.6064 0.0000 0.0000 0.0000 4.7897 4.1645 -9.6145 27.8529 -38.9805 10.031 3.631 8.8852 -37.3724 0.0 0.0 0.0 -7.1250 0.0 0.0 -37.8074 63.4195 18.1832 0.0000 0.0000 0.0000 -13.3705 8.8766 0.6087 -131.7665 -52.2577 -95.2298 -57.288 -57.0552 -25.8335 0.0 0.0 0.0 7.1250 0.0 -0.0 -15.5254 -10.5463 -18.7392
24.9594 17.0519 -20.6804 8.0022 -18.3120 4.1705 0.0000 0.0000 0.0000 -19.3429 2.1799 -6.7313 2.3572 9.5735 27.6064 1.0140 -7.8218 -18.0164 3.2643 -11.1110 -32.6552 0.0000 0.0000 0.0000 13.1937 2.1445 -39.2967 -5.6383 -14.0684 43.5122 -0.9673 3.2541 -17.7795 -0.3137 3.6003 -9.9547 -10.7258 -1.1777 10.7618 0.5375 -2.7382 2.4762 6.9669 -1.3112 -2.8869 -17.3757 -4.1788 -20.5537 10.9665 -2.9996 20.5952 6.4349 -1.4772 10.4384 -0.0000 -0.0000 0.0000 4.5557 4.3075 -9.5924 27.9562 -39.0759 10.0961 3.8726 9.1257 -37.617 0.0 0.0 0.0 -7.1250 0.0 0.0 -37.8819 63.6744 18.4481 -0.0000 -0.0000 0.0000 -13.7163 8.9303 1.347 -131.6917 -52.29 -95.1706 -57.4138 -56.438 -25.2814 0.0 0.0 0.0 7.1250 0.0 -0.0 -15.7609 -9.9177 -18.9053
24.8736 17.0539 -20.6404 4.7063 -18.7639 6.3305 0.0000 0.0000 0.0000 -15.5628 2.0980 -7.9286 2.3388 9.5387 27.4955 0.9177 -7.7241 -17.1499 3.1238 -10.8927 -31.9190 0.0000 0.0000 0.0000 16.8756 5.1534 -39.9658 -5.1175 -13.5149 41.3277 -0.8651 0.6927 -17.3590 -0.2779 3.3906 -9.3681 -7.9946 -1.1211 10.7078 1.4978 -2.3370 1.8890 6.4088 -1.0702 -3.6351 -17.9114 -4.1980 -20.3290 11.4666 -3.0240 20.6360 6.7151 -1.4810 10.4325 0.0000 -0.0000 0.0000 4.6718 4.3292 -9.808 28.0305 -39.1443 10.1429 4.3079 9.2652 -36.6806 0.0 0.0 0.0 -7.1250 0.0 0.0 -36.2693 63.0545 17.0323 0.0000 -0.0000 0.0000 -13.7416 9.0734 1.9135 -131.6075 -52.3263 -95.1039 -58.1736 -57.5134 -25.5705 0.0 0.0 0.0 7.1250 0.0 -0.0 -16.0753 -10.8048 -19.5104
24.8128 17.0994 -20.4403 5.8371 -18.7111 5.5490 0.0000 0.0000 0.0000 -16.8569 2.2983 -5.9839 2.2080 9.2865 26.6958 0.9171 -7.7069 -17.1429 2.8342 -10.4217 -30.3535 0.0000 0.0000 0.0000 16.1676 3.9108 -39.7416 -4.7540 -13.1013 39.7488 -0.7179 0.7081 -15.7842 -0.2652 3.3129 -9.1511 -8.4358 -1.1185 10.4460 1.1602 -2.3672 2.0922 6.2866 -1.1067 -3.2663 -17.6532 -4.2171 -20.4968 10.9554 -2.9911 20.9880 6.4954 -1.5114 10.5754 0.0000 -0.0000 0.0000 4.8386 4.0534 -10.3884 27.8637 -38.9904 10.0378 4.5849 8.8833 -36.3556 0.0 0.0 0.0 -7.1250 0.0 0.0 -35.5989 62.8679 16.5195 0.0000 -0.0000 0.0000 -13.8919 9.1505 2.1233 -131.4627 -52.3883 -94.9893 -58.7579 -59.5105 -27.033 0.0 0.0 0.0 7.1250 0.0 -0.0 -15.9252 -13.0789 -19.7968
24.7550 17.0747 -20.2691 6.9023 -18.7385 4.8754 0.0000 0.0000 0.0000 -18.0357 2.4090 -4.6094 2.0985 9.0682 26.0089 0.9079 -7.1192 -17.0206 3.0747 -10.8150 -31.6583 0.0000 0.0000 0.0000 15.4780 3.1589 -39.7444 -4.4674 -12.7577 38.4682 -0.5568 0.3737 -13.9745 -0.0873 1.9061 -5.2461 -9.0777 -1.1242 10.3674 0.9154 -2.4386 2.2932 6.3898 -1.1595 -2.9806 -17.5618 -4.1794 -20.5739 10.6643 -2.8749 20.9188 6.3822 -1.4801 10.5406 -0.0000 -0.0000 0.0000 4.8862 3.7107 -10.5412 27.7418 -38.8774 9.9612 4.5454 8.4813 -36.5942 0.0 0.0 0.0 -7.1250 0.0 0.0 -35.9264 63.0481 16.8437 -0.0000 -0.0000 0.0000 -13.9926 8.9607 2.8264 -131.7919 -52.2467 -95.2498 -60.1196 -62.5526 -28.0494 0.0 0.0 0.0 7.1250 0.0 -0.0 -16.3087 -15.336 -20.7643
24.6891 17.0648 -20.0836 8.6613 -18.7595 3.6267 0.0000 0.0000 0.0000 -19.8685 2.9349 -2.4039 1.8621 8.5728 24.4678 0.8416 -6.9937 -16.3882 3.1193 -10.8857 -31.8953 0.0000 0.0000 0.0000 14.1671 1.9241 -39.6255 -4.3828 -12.6530 38.0832 -0.4415 0.3673 -12.4301 -0.0007 0.1681 -0.4620 -10.4407 -1.0570 10.4190 0.4708 -2.4970 2.7249 6.6852 -1.2258 -2.4977 -17.9075 -4.2122 -20.6387 11.0212 -2.8682 20.5783 6.5649 -1.4503 10.4387 -0.0000 -0.0000 0.0000 4.8396 3.3507 -10.5251 27.8919 -39.0165 10.0556 5.8751 9.5766 -35.5385 0.0 0.0 0.0 -7.1250 0.0 0.0 -33.3454 62.5392 15.0883 -0.0000 -0.0000 0.0000 -13.8279 8.4889 3.7013 -132.3147 -52.0182 -95.6625 -62.0112 -66.3588 -28.6184 0.0 0.0 0.0 7.1250 0.0 -0.0 -17.1065 -17.4933 -22.2802
24.6075 17.0762 -19.9423 7.4637 -18.7985 4.2192 0.0000 0.0000 0.0000 -18.4409 3.0338 -1.5695 1.7331 8.2865 23.5877 0.7606 -7.0984 -15.6040 2.9674 -10.6420 -31.0818 0.0000 0.0000 0.0000 15.9610 2.0853 -39.9983 -4.3394 -12.5988 37.8848 -0.3217 -1.1953 -11.2160 -0.0360 -1.2244 3.3664 -9.2765 -0.9922 10.1658 0.8439 -2.2475 2.7677 6.3849 -1.1120 -2.3955 -17.8401 -4.2714 -20.5851 11.0353 -2.9760 20.3552 6.5328 -1.4863 10.3648 0.0000 -0.0000 0.0000 4.9565 3.1091 -11.1226 28.0911 -39.2 10.1812 6.8662 10.3044 -35.0919 0.0 0.0 0.0 -7.1250 0.0 0.0 -31.8376 62.4232 14.2422 0.0000 -0.0000 0.0000 -13.61 8.1088 3.8349 -132.4413 -51.9622 -95.7623 -62.0632 -66.096 -28.2179 0.0 0.0 0.0 7.1250 0.0 -0.0 -17.2689 -17.0448 -22.4234
24.5353 17.0620 -19.7745 8.6917 -18.7325 3.3648 0.0000 0.0000 0.0000 -19.6402 3.1282 -0.0149 1.6565 8.1106 23.0506 0.7224 -7.0189 -15.2128 2.8415 -10.4339 -30.3935 0.0000 0.0000 0.0000 15.2423 1.0623 -40.0426 -4.4352 -12.7181 38.3221 -0.2413 -2.3676 -10.4609 -0.2196 -3.0169 8.3258 -9.7499 -0.9497 10.1861 0.2111 -2.2516 3.0056 5.9755 -1.1334 -2.1614 -17.5340 -4.2427 -20.4171 11.1421 -3.0899 20.2638 6.5004 -1.5035 10.3138 -0.0000 -0.0000 0.0000 5.6644 3.0809 -11.8364 28.3203 -39.4094 10.3264 3.223 7.919 -37.6732 0.0 0.0 0.0 -7.1250 0.0 0.0 -38.5979 63.5435 18.7326 -0.0000 -0.0000 0.0000 -12.9997 7.7739 3.6557 -132.2116 -52.0636 -95.5813 -61.4164 -63.1772 -27.4672 0.0 0.0 0.0 7.1250 0.0 -0.0 -17.1790 -15.6022 -22.0147
24.4499 17.0417 -19.6491 7.3256 -18.9484 4.0721 0.0000 0.0000 0.0000 -17.9758 3.2647 -0.2456 1.7550 8.3360 23.7393 0.6998 -7.1159 -14.9899 3.1890 -10.9949 -32.2625 0.0000 0.0000 0.0000 17.1412 1.5930 -40.1467 -4.4944 -12.7907 38.5900 -0.1934 -4.5781 -11.2634 -0.6796 -5.2709 14.6828 -8.7909 -0.8750 10.4846 0.9797 -2.0790 2.5043 6.2541 -0.9951 -2.8943 -17.9645 -4.2885 -20.3478 10.7579 -2.9596 20.8180 6.4670 -1.5421 10.4860 0.0000 0.0000 0.0000 5.0688 3.8083 -12.2408 28.5525 -39.6199 10.4741 10.8431 11.5521 -31.5593 0.0 0.0 0.0 -7.1250 0.0 0.0 -24.2833 60.3319 9.4063 0.0000 0.0000 0.0000 -13.5932 8.0507 3.1759 -131.6342 -52.3147 -95.1251 -60.7313 -59.6501 -27.6796 0.0 0.0 0.0 7.1250 0.0 -0.0 -16.7503 -15.3385 -21.3701
24.3711 17.0031 -19.4910 8.3798 -19.0896 3.4076 0.0000 0.0000 0.0000 -18.9095 3.1706 0.2319 1.9276 8.7136 24.9034 0.6944 -7.4549 -14.9703 3.0675 -10.8035 -31.6199 0.0000 0.0000 0.0000 16.6287 0.7603 -39.9547 -4.6237 -12.9471 39.1707 -0.2335 -5.2604 -12.5772 -1.0766 -6.5953 18.5218 -9.6945 -0.8019 10.5373 0.8880 -2.0893 2.4954 6.6735 -0.9953 -2.8981 -17.4204 -4.3216 -20.6839 9.4907 -2.8213 21.4579 5.9361 -1.5981 10.7385 -0.0000 -0.0000 0.0000 4.7995 4.1069 -12.401 28.6697 -39.7255 10.549 6.3217 9.4628 -35.1218 0.0 0.0 0.0 -7.1250 0.0 0.0 -32.4249 62.3094 14.4479 -0.0000 -0.0000 0.0000 -13.6444 7.9595 3.824 -132.3780 -51.9902 -95.7125 -58.8776 -56.6557 -26.6447 0.0 0.0 0.0 7.1250 0.0 -0.0 -16.1114 -12.6727 -19.9608
24.2696 16.9998 -19.3907 6.8167 -19.2849 4.4083 0.0000 0.0000 0.0000 -16.8848 2.7669 -0.4453 2.1092 9.0900 26.0771 0.5942 -8.0336 -14.0060 2.5531 -9.9337 -28.7624 0.0000 0.0000 0.0000 18.8492 1.7259 -39.9573 -4.7126 -13.0527 39.5660 -0.2536 -6.4476 -14.0093 -1.1017 -6.6693 18.7392 -8.6270 -0.7816 10.4615 1.6078 -1.9253 2.1150 6.8223 -0.8846 -3.3018 -18.4921 -4.1507 -19.2058 10.1701 -2.6653 20.4121 6.3460 -1.5256 10.0856 0.0000 -0.0000 0.0000 4.4232 4.4169 -12.3194 28.7758 -39.8207 10.6168 4.8469 8.8002 -35.8301 0.0 0.0 0.0 -7.1250 0.0 0.0 -34.7166 62.5128 15.7672 0.0000 -0.0000 0.0000 -14.0088 7.8916 4.1972 -132.6712 -51.8597 -95.9432 -60.8807 -60.4545 -27.8808 0.0 0.0 0.0 7.1250 0.0 -0.0 -16.7622 -15.7026 -21.4584
24.1661 17.0050 -19.3077 5.3798 -19.4328 5.4433 0.0000 0.0000 0.0000 -14.9539 2.7999 -1.5041 2.2659 9.3992 27.0522 0.4571 -8.1120 -12.4926 3.1411 -10.9201 -32.0108 0.0000 0.0000 0.0000 20.7292 3.1132 -39.9040 -4.8063 -13.1623 39.9790 -0.2523 -7.4224 -14.9654 -1.0397 -6.4850 18.1984 -7.3977 -0.8203 10.2748 1.9814 -1.8171 1.9443 6.5022 -0.8292 -3.4270 -18.8272 -4.0713 -19.0001 10.6656 -2.6037 20.1546 6.5875 -1.4626 9.9546 0.0000 -0.0000 0.0000 4.6153 4.2095 -12.1652 28.7555 -39.8025 10.6038 4.6808 8.8525 -35.6568 0.0 0.0 0.0 -7.1250 0.0 0.0 -34.6830 62.33 15.6006 0.0000 -0.0000 0.0000 -13.7892 7.4014 4.0418 -132.8857 -51.7632 -96.1119 -60.533 -58.5115 -27.4359 0.0 0.0 0.0 7.1250 0.0 -0.0 -16.7262 -14.8836 -21.246
24.0776 17.0119 -19.0795 7.5228 -19.0692 3.9096 0.0000 0.0000 0.0000 -17.0299 2.9853 -0.3940 2.4370 9.7224 28.0824 0.3901 -8.3380 -11.7507 3.8806 -11.9999 -35.7315 0.0000 0.0000 0.0000 18.8024 1.1541 -38.6760 -4.8909 -13.2599 40.3494 -0.3999 -5.9600 -15.6143 -1.0890 -6.6320 18.6295 -8.4238 -0.9618 9.9701 1.0342 -2.1072 2.4623 6.0876 -1.0204 -2.6620 -18.4457 -4.1128 -19.6973 10.7173 -2.6735 20.6992 6.5631 -1.4642 10.2834 0.0000 -0.0000 0.0000 5.2593 4.0738 -12.4095 28.8003 -39.8426 10.6325 2.3077 7.5377 -36.9388 0.0 0.0 0.0 -7.1250 0.0 0.0 -38.5666 62.7338 17.9881 0.0000 -0.0000 0.0000 -12.9025 6.6885 3.1517 -132.9510 -51.7337 -96.1631 -57.963 -50.084 -24.8874 0.0 0.0 0.0 7.1250 0.0 -0.0 -16.1723 -9.7725 -19.4037
